<!DOCTYPE svg PUBLIC "-//W3C//DTD SVG 20010904//EN" "http://www.w3.org/TR/2001/REC-SVG-20010904/DTD/svg10.dtd">
<svg version="1.0" xmlns="http://www.w3.org/2000/svg" width="400px" height="400px" viewBox="0 0 4000 4000" preserveAspectRatio="xMidYMid meet">
<g id="layer101" fill="#cbdbdd" stroke="none">
 <path d="M1770 3994 c-590 -73 -1111 -392 -1439 -883 -151 -226 -245 -457 -303 -744 -20 -99 -23 -141 -23 -367 0 -226 3 -268 23 -367 83 -411 252 -737 532 -1027 312 -323 716 -529 1159 -590 146 -21 416 -21 562 0 443 61 847 267 1159 590 280 290 449 616 532 1027 20 99 23 141 23 367 0 226 -3 268 -23 367 -83 411 -252 737 -532 1027 -286 296 -629 484 -1043 572 -108 23 -150 26 -357 29 -129 2 -251 1 -270 -1z m399 -209 c420 -28 881 -264 1177 -603 719 -822 550 -2070 -361 -2678 -595 -396 -1375 -396 -1970 0 -833 555 -1058 1662 -507 2487 268 400 676 674 1147 769 114 23 294 39 380 34 28 -2 88 -6 134 -9z"/>
 <path d="M2173 2603 c-37 -7 -73 -59 -73 -106 0 -39 5 -46 172 -214 l172 -173 -525 0 c-349 0 -536 -4 -557 -11 -41 -14 -62 -49 -62 -102 0 -34 6 -49 28 -70 l28 -27 541 -2 542 -3 -170 -177 c-163 -171 -169 -179 -169 -218 0 -61 41 -100 106 -100 l48 0 264 263 c148 147 270 276 278 295 30 67 17 84 -268 369 -230 229 -297 287 -326 282 -4 -1 -17 -4 -29 -6z"/>
 </g>

</svg>