<svg id="Layer_3" data-name="Layer 3" xmlns="http://www.w3.org/2000/svg" viewBox="0 0 251 156.6"><defs><style>.cls-1{fill:#b2d5e6;}.cls-1,.cls-2,.cls-6,.cls-7{stroke:#0073ae;}.cls-1,.cls-2,.cls-3{stroke-miterlimit:10;}.cls-1,.cls-2,.cls-3,.cls-5,.cls-6{stroke-width:2px;}.cls-2{fill:#fff;}.cls-3{fill:#ffdbb2;stroke:#f80;}.cls-4,.cls-8{fill:#0073ae;}.cls-4{opacity:0.5;}.cls-5,.cls-6,.cls-7{fill:none;stroke-linecap:round;stroke-linejoin:round;}.cls-5{stroke:#fff;}.cls-6{opacity:0.2;}.cls-7{stroke-width:3px;stroke-dasharray:0 7;opacity:0.3;}</style></defs><title>VectorSmartObjectMob</title><rect class="cls-1" x="76.31" y="62.74" width="96.94" height="84.37" rx="2.46" ry="2.46"/><rect class="cls-1" x="110.52" y="62.74" width="62.73" height="84.37" rx="2.46" ry="2.46"/><path class="cls-2" d="M1254.24,1032.61a2.35,2.35,0,0,0-2.46-2.22H1194a2.35,2.35,0,0,0-2.46,2.22v24.32c0,0.11,0,.22,0,0.33,0,7.86,14,14.24,31.37,14.24s31.37-6.38,31.37-14.24a6.6,6.6,0,0,0,0-.68l0-.1v-23.86Z" transform="translate(-1081 -967.59)"/><rect class="cls-3" x="121.45" y="69.65" width="40.82" height="24.38" rx="1.87" ry="1.87"/><rect class="cls-2" x="125.97" y="107.17" width="7.19" height="7.2" rx="1.99" ry="1.99"/><rect class="cls-2" x="137.98" y="107.17" width="7.19" height="7.2" rx="1.99" ry="1.99"/><rect class="cls-2" x="149.99" y="107.17" width="7.19" height="7.2" rx="1.99" ry="1.99"/><rect class="cls-2" x="125.97" y="119.18" width="7.19" height="7.2" rx="1.99" ry="1.99"/><rect class="cls-2" x="137.98" y="119.18" width="7.19" height="7.2" rx="1.99" ry="1.99"/><rect class="cls-2" x="149.99" y="119.18" width="7.19" height="7.2" rx="1.99" ry="1.99"/><rect class="cls-2" x="125.97" y="131.19" width="7.19" height="7.2" rx="1.99" ry="1.99"/><rect class="cls-2" x="137.98" y="131.19" width="7.19" height="7.2" rx="1.99" ry="1.99"/><rect class="cls-2" x="149.99" y="131.19" width="7.19" height="7.2" rx="1.99" ry="1.99"/><path class="cls-4" d="M1165.51,1109.78a10.86,10.86,0,0,0,0,4.83H1187a10.86,10.86,0,0,0,0-4.83c-0.93-8.76-3.64-40,1.53-67.1a13.38,13.38,0,0,0-.79-12.36h-22.93a13.38,13.38,0,0,0-.79,12.36C1169.15,1069.78,1166.44,1101,1165.51,1109.78Z" transform="translate(-1081 -967.59)"/><path class="cls-4" d="M1254.23,1032.51a2.1,2.1,0,0,0-.65-1.4,2.45,2.45,0,0,0-1.79-.77h-3.46v84.37h3.46a2.46,2.46,0,0,0,2.46-2.46v-79.46A2.47,2.47,0,0,0,1254.23,1032.51Z" transform="translate(-1081 -967.59)"/><path class="cls-2" d="M1186.26,1042.69a13.4,13.4,0,1,0-24.51,0c5.17,27.1,2.46,58.33,1.53,67.1a11,11,0,1,0,21.44,0C1183.8,1101,1181.09,1069.78,1186.26,1042.69Z" transform="translate(-1081 -967.59)"/><line class="cls-5" x1="139.05" y1="88.14" x2="137.59" y2="89.86"/><line class="cls-5" x1="151.89" y1="73.07" x2="140.95" y2="85.91"/><line class="cls-5" x1="144.43" y1="74.32" x2="136.34" y2="83.64"/><circle class="cls-6" cx="173" cy="19.37" r="18"/><circle class="cls-6" cx="75" cy="19" r="18"/><circle class="cls-6" cx="19" cy="89.41" r="18"/><circle class="cls-6" cx="232" cy="89.39" r="18"/><line class="cls-7" x1="82" y1="39.41" x2="87" y2="54.41"/><line class="cls-7" x1="166.5" y1="39.91" x2="159.5" y2="58.91"/><line class="cls-7" x1="211.5" y1="95.91" x2="176.5" y2="100.91"/><line class="cls-7" x1="38.5" y1="94.91" x2="71.5" y2="100.91"/><path class="cls-8" d="M1156,975.06a11.53,11.53,0,1,0,11.53,11.53A11.54,11.54,0,0,0,1156,975.06Zm10.48,8.93a1,1,0,0,0-.73.46,1,1,0,0,0,.08,1.1,1.33,1.33,0,0,1,.16.34l-0.1.08a1.27,1.27,0,0,0-.57.83l-0.2.13a2,2,0,0,0-1.16,2.18c0.22,1.13,0,1.88-1.63,4.09a2,2,0,0,1-1.23.94,0.37,0.37,0,0,1-.31-0.14,3,3,0,0,1-.28-2.19c0.49-3.52-1.09-4.48-1.27-4.57a0.68,0.68,0,0,0-.61,0,3.47,3.47,0,0,1-1.35.31,1.83,1.83,0,0,1-1.81-1.67,2.12,2.12,0,0,1,1.07-2.61,1.82,1.82,0,0,0,.93-1.22,1.29,1.29,0,0,0-.42-1,0.72,0.72,0,0,1-.26-0.55,1,1,0,0,1,.41-0.59,3,3,0,0,0,2.17-.91,1,1,0,0,0,.06-0.93h0l0.15,0,0.21-.06A2.29,2.29,0,0,0,1161,977,10.84,10.84,0,0,1,1166.48,984Zm-10.48-8.2c0.32,0,.64,0,0.95,0a1,1,0,0,1,0,.11,0.52,0.52,0,0,1-.37.25l-0.23.05a1.79,1.79,0,0,0-1.19.68,2.24,2.24,0,0,1-.29.28,0.92,0.92,0,0,1-.87.11,1.5,1.5,0,0,1-.17-1.09l-0.45-.11A10.78,10.78,0,0,1,1156,975.79Zm-4.7,1.08a1.85,1.85,0,0,0,.41,1.71,3.18,3.18,0,0,0,.5.41l0.25,0.18a1.22,1.22,0,0,1,.51,1,4.67,4.67,0,0,1-.82,1.14,4.85,4.85,0,0,0-.53.68c0,0.08-.1.18-0.46,0a1.39,1.39,0,0,1-.31-0.21,1.23,1.23,0,0,0-.8-0.35,1.35,1.35,0,0,0-.95.44l-0.09.08a4.93,4.93,0,0,1-1.52.75l-0.53.2a4.19,4.19,0,0,0-1.36.83A10.85,10.85,0,0,1,1151.3,976.87Zm-6.09,9.72c0-.06,0-0.13,0-0.19a1.18,1.18,0,0,0,1,.45,2.25,2.25,0,0,1,1.61.79,11,11,0,0,0,2.67,1.71,1.15,1.15,0,0,1,.85,1.83,2.53,2.53,0,0,0-.26,1.37l0,0a2.45,2.45,0,0,0-1.33,2.13c0,0.21-.05.42-0.07,0.64A10.79,10.79,0,0,1,1145.2,986.59Zm10.8,10.8a10.73,10.73,0,0,1-5.62-1.58c0-.36.05-0.7,0.1-1a1.75,1.75,0,0,1,1-1.59,0.58,0.58,0,0,0,.4-0.7,1.79,1.79,0,0,1,.2-1.05,2.18,2.18,0,0,0,.18-1.55,2.08,2.08,0,0,0-1.39-1.21,10.32,10.32,0,0,1-2.51-1.61,2.94,2.94,0,0,0-2.08-1c-0.36,0-.51,0-0.74-0.86a3.53,3.53,0,0,1-.12-0.61v-0.08l0.35,0.16a2.58,2.58,0,0,1,1.48-1.16l0.51-.19a5.56,5.56,0,0,0,1.74-.88l0.1-.09a0.94,0.94,0,0,1,.42-0.26,0.52,0.52,0,0,1,.37.18,2.08,2.08,0,0,0,.46.31,1,1,0,0,0,1.43-.31,5.37,5.37,0,0,1,.44-0.55,3.65,3.65,0,0,0,1-1.53,1.91,1.91,0,0,0-.77-1.65l-0.29-.21a2.59,2.59,0,0,1-.39-0.31,1.12,1.12,0,0,1,0-1.45l-0.12-.1q0.47-.18,1-0.32a2.24,2.24,0,0,0,.35,1.61l0.05,0.07,0.08,0a1.61,1.61,0,0,0,.76.19,1.63,1.63,0,0,0,1-.31,2.83,2.83,0,0,0,.39-0.37,1.1,1.1,0,0,1,.81-0.46l0.27-.06a1.17,1.17,0,0,0,.88-0.74,1.85,1.85,0,0,0,0-.21v0a10.7,10.7,0,0,1,2.66.78,1.55,1.55,0,0,1-.78.53l-0.2.06a1.34,1.34,0,0,0-.66.3l-0.51.6h0.51l0.06,0.15a0.27,0.27,0,0,1,0,.26,2.63,2.63,0,0,1-1.71.57h-0.1l-0.08.06a1.84,1.84,0,0,0-.78,1.15,1.4,1.4,0,0,0,.46,1.14,0.55,0.55,0,0,1,.22.44,1.29,1.29,0,0,1-.64.69,2.84,2.84,0,0,0-1.34,3.38,2.51,2.51,0,0,0,2.52,2.22,4.22,4.22,0,0,0,1.64-.37c0.19,0.13,1.26,1,.87,3.81a3.57,3.57,0,0,0,.45,2.77,1.09,1.09,0,0,0,.84.39h0a2.6,2.6,0,0,0,1.79-1.23c1.66-2.23,2-3.23,1.76-4.66a1.24,1.24,0,0,1,.82-1.41A0.82,0.82,0,0,0,1166,987a0.52,0.52,0,0,1,.29-0.4c0.42-.32.57-0.63,0.13-1.38a0.44,0.44,0,0,1-.08-0.36,0.33,0.33,0,0,1,.24-0.11A10.79,10.79,0,0,1,1156,997.39Z" transform="translate(-1081 -967.59)"/><path class="cls-8" d="M1156,998.39a11.8,11.8,0,1,1,11.8-11.8A11.82,11.82,0,0,1,1156,998.39Zm0-23.06a11.26,11.26,0,1,0,11.26,11.26A11.27,11.27,0,0,0,1156,975.33Zm0,22.33a11,11,0,0,1-5.76-1.62l-0.14-.09v-0.16c0-.36.05-0.71,0.1-1a2,2,0,0,1,1.1-1.79c0.25-.14.31-0.18,0.27-0.41a2,2,0,0,1,.22-1.2A1.94,1.94,0,0,0,1152,990a1.82,1.82,0,0,0-1.24-1,10.53,10.53,0,0,1-2.57-1.65,2.7,2.7,0,0,0-1.91-.9c-0.53,0-.75-0.16-1-1.06a3.83,3.83,0,0,1-.13-0.66v0l0-.08-0.06.05,0.26-1a11.09,11.09,0,0,1,5.85-7l0.53-.26v0l0.31-.12,0.32-.12-0.1,0,1.19-.31h0a11.22,11.22,0,0,1,3.57-.26l0.3,0-0.05.29a1.22,1.22,0,0,1,0,.14,0.77,0.77,0,0,1-.56.43l-0.24.06a1.52,1.52,0,0,0-1,.6,2.51,2.51,0,0,1-.33.32,1.18,1.18,0,0,1-1.13.14l-0.09,0,0-.08a1.78,1.78,0,0,1-.24-1l-0.18,0a2,2,0,0,0,.33,1.27l0,0a1.4,1.4,0,0,0,1.44-.11,2.66,2.66,0,0,0,.35-0.33,1.34,1.34,0,0,1,.94-0.54l0.27-.06a0.91,0.91,0,0,0,.69-0.55,1.73,1.73,0,0,0,0-.18l0-.26,0.27,0a11,11,0,0,1,2.73.8l0.32,0.14-0.21.27a1.81,1.81,0,0,1-.92.63l-0.21.06a1.36,1.36,0,0,0-.53.22l-0.13.15h0.11l0.12,0.31a0.54,0.54,0,0,1,0,.51,3,3,0,0,1-1.92.7l0,0a1.61,1.61,0,0,0-.67,1,1.14,1.14,0,0,0,.39.92,0.85,0.85,0,0,1,.29.64,1.44,1.44,0,0,1-.75.89A2.58,2.58,0,0,0,1155,986a2.27,2.27,0,0,0,2.26,2,3.94,3.94,0,0,0,1.52-.34l0.14-.06,0.13,0.09c0.24,0.16,1.39,1.11,1,4.07a3.38,3.38,0,0,0,.39,2.55,0.81,0.81,0,0,0,.63.3,2.37,2.37,0,0,0,1.61-1.12c1.6-2.15,2-3.11,1.71-4.45a1.5,1.5,0,0,1,.94-1.7,0.72,0.72,0,0,0,.42-0.36,0.77,0.77,0,0,1,.4-0.62c0.29-.22.44-0.38,0.06-1a0.62,0.62,0,0,1-.08-0.64,0.56,0.56,0,0,1,.45-0.24l0.26,0,0,0.25A11.06,11.06,0,0,1,1156,997.66Zm-5.34-2a10.52,10.52,0,0,0,15.86-8.91l0,0a0.36,0.36,0,0,0-.19.19,1,1,0,0,1-.68.83,1,1,0,0,0-.69,1.13c0.29,1.52-.1,2.57-1.81,4.87a2.85,2.85,0,0,1-2,1.34h0a1.38,1.38,0,0,1-1.1-.48,3.81,3.81,0,0,1-.52-3c0.31-2.28-.36-3.19-0.65-3.46a4.45,4.45,0,0,1-1.59.33,2.79,2.79,0,0,1-2.78-2.42,3.11,3.11,0,0,1,1.44-3.67,1.64,1.64,0,0,0,.53-0.5,0.42,0.42,0,0,0-.14-0.23,1.65,1.65,0,0,1-.53-1.37,2.1,2.1,0,0,1,.89-1.33l0.14-.1H1157a2.62,2.62,0,0,0,1.5-.43h-0.9l0.89-1a1.51,1.51,0,0,1,.79-0.39l0.2-.06a1.37,1.37,0,0,0,.38-0.18,10.48,10.48,0,0,0-2-.56h0a1.43,1.43,0,0,1-1.07.92l-0.29.07a1.49,1.49,0,0,0-.37.11,1.46,1.46,0,0,0-.29.27,3.17,3.17,0,0,1-.43.4,2,2,0,0,1-2,.15l-0.17-.13-0.05-.07a2.5,2.5,0,0,1-.43-1.39l-0.2.07-0.15.17a0.85,0.85,0,0,0,0,1.08,2.54,2.54,0,0,0,.34.28l0.31,0.23a2.18,2.18,0,0,1,.87,1.89,3.71,3.71,0,0,1-1.06,1.68,6.29,6.29,0,0,0-.41.5,1.24,1.24,0,0,1-1.79.42,2.35,2.35,0,0,1-.51-0.35,0.27,0.27,0,0,0-.21-0.11,0.93,0.93,0,0,1-.23.19l-0.1.09a5.74,5.74,0,0,1-1.81.93l-0.51.19a2.33,2.33,0,0,0-1.33,1l-0.11.25-0.15-.07,0,0.17c0.18,0.65.22,0.65,0.48,0.66a3.17,3.17,0,0,1,2.26,1,10.1,10.1,0,0,0,2.45,1.57,2.33,2.33,0,0,1,1.53,1.38,2.44,2.44,0,0,1-.19,1.73,1.55,1.55,0,0,0-.19.9,0.85,0.85,0,0,1-.53,1,1.49,1.49,0,0,0-.83,1.39C1150.71,995.09,1150.69,995.37,1150.66,995.66Zm-5.28-11.36,0.25,0.08a3.15,3.15,0,0,1,1.49-1.06l0.46-.18a5.52,5.52,0,0,0,1.71-.85l0.1-.08a1.06,1.06,0,0,1,.58-0.33,0.79,0.79,0,0,1,.56.24,1.82,1.82,0,0,0,.4.28,0.71,0.71,0,0,0,1.07-.2,4.72,4.72,0,0,1,.47-0.59,3.67,3.67,0,0,0,.93-1.39,1.64,1.64,0,0,0-.67-1.41l-0.27-.2a2.76,2.76,0,0,1-.43-0.35,1.39,1.39,0,0,1-.18-1.6l-0.19-.17-0.11.44a1.57,1.57,0,0,0,.34,1.46,3,3,0,0,0,.46.37l0.26,0.19a1.5,1.5,0,0,1,.61,1.24,3.35,3.35,0,0,1-.88,1.28,5,5,0,0,0-.5.64,0.57,0.57,0,0,1-.82.12,1.61,1.61,0,0,1-.36-0.25,1,1,0,0,0-.64-0.28,1.08,1.08,0,0,0-.75.37l-0.09.08a5.13,5.13,0,0,1-1.6.8l-0.52.2a4,4,0,0,0-1.27.77Zm5.58-6.95a10.55,10.55,0,0,0-4.86,5.65,5.49,5.49,0,0,1,.74-0.36l0.54-.2a4.74,4.74,0,0,0,1.44-.71l0.09-.08a1.61,1.61,0,0,1,1.14-.5,1.5,1.5,0,0,1,1,.41,1.09,1.09,0,0,0,.25.18l0.14,0.06a5.92,5.92,0,0,1,.53-0.67,5,5,0,0,0,.76-1,1,1,0,0,0-.41-0.75l-0.23-.17a3.43,3.43,0,0,1-.54-0.44A2.06,2.06,0,0,1,1151,977.35Zm3.2-.26a0.63,0.63,0,0,0,.52-0.1,1.94,1.94,0,0,0,.25-0.25,2.49,2.49,0,0,1,.61-0.52,1.89,1.89,0,0,1,.38-0.16,10.52,10.52,0,0,0-1.84.18v0A1.24,1.24,0,0,0,1154.16,977.09Zm-4.26,18.75-0.39-.28a11.11,11.11,0,0,1-4.59-9v-1l0.48,0.64a0.91,0.91,0,0,0,.81.34,2.51,2.51,0,0,1,1.79.85,10.75,10.75,0,0,0,2.62,1.67,1.69,1.69,0,0,1,1.15.92,1.73,1.73,0,0,1-.16,1.25,2.27,2.27,0,0,0-.24,1.23l0,0.18-0.16.09a2.2,2.2,0,0,0-1.22,1.95c0,0.2-.05.41-0.07,0.63Zm-4.43-8.87a10.57,10.57,0,0,0,4,7.86l0-.17a2.74,2.74,0,0,1,1.34-2.26,3,3,0,0,1,.29-1.32,1.23,1.23,0,0,0,.14-0.9,1.34,1.34,0,0,0-.86-0.58,11.24,11.24,0,0,1-2.74-1.75,2,2,0,0,0-1.44-.72A1.81,1.81,0,0,1,1145.48,987Zm15.6,7.43a0.65,0.65,0,0,1-.49-0.23,3.21,3.21,0,0,1-.34-2.4c0.47-3.4-1.07-4.26-1.13-4.3a0.4,0.4,0,0,0-.37,0,3.75,3.75,0,0,1-1.47.34,2.1,2.1,0,0,1-2.07-1.87,2.39,2.39,0,0,1,1.17-2.9,1.6,1.6,0,0,0,.82-1,1,1,0,0,0-.34-0.79,1,1,0,0,1-.34-0.77,1.3,1.3,0,0,1,.51-0.76l0.06-.05h0.08a2.64,2.64,0,0,0,2-.78,0.73,0.73,0,0,0,0-.68l-0.12-.28,0.64-.21a2,2,0,0,0,1.09-.8l0.14-.2,0.22,0.11a11.1,11.1,0,0,1,5.61,7.13l0.07,0.28-0.29,0a0.72,0.72,0,0,0-.54.33,0.8,0.8,0,0,0,.08.82,1.58,1.58,0,0,1,.19.43l0,0.15-0.12.1-0.1.08a1,1,0,0,0-.49.66l0,0.12-0.1.07-0.18.11a1.73,1.73,0,0,0-1.07,1.92c0.23,1.22,0,2-1.68,4.3a2.25,2.25,0,0,1-1.43,1h0Zm-2.15-7.52a0.93,0.93,0,0,1,.44.11c0.2,0.11,1.92,1.14,1.41,4.85a2.91,2.91,0,0,0,.22,2,0.12,0.12,0,0,0,.09,0,1.79,1.79,0,0,0,1-.83c1.67-2.25,1.77-2.91,1.58-3.87a2.23,2.23,0,0,1,1.29-2.47l0.1-.06a1.54,1.54,0,0,1,.59-0.83l-0.07-.12a1.31,1.31,0,0,1-.09-1.37,1.17,1.17,0,0,1,.63-0.52,10.56,10.56,0,0,0-5.06-6.41,2.57,2.57,0,0,1-1.23.82l-0.1,0a1.26,1.26,0,0,1-.16.9,2.93,2.93,0,0,1-2.29,1,0.73,0.73,0,0,0-.25.36,0.47,0.47,0,0,0,.19.33,1.55,1.55,0,0,1,.49,1.22,2,2,0,0,1-1,1.41,1.87,1.87,0,0,0-1,2.32,1.57,1.57,0,0,0,1.55,1.46,3.17,3.17,0,0,0,1.23-.28A1,1,0,0,1,1158.92,986.88Z" transform="translate(-1081 -967.59)"/><path class="cls-8" d="M1259.53,996.67l-0.17,0a0.72,0.72,0,0,1-.47-0.37l-3.88-7.4-1.87,1.79,0.07,3.14a0.73,0.73,0,0,1-.22.54l-0.82.8a0.69,0.69,0,0,1-.54.2,0.73,0.73,0,0,1-.52-0.25l-2.47-2.87-3-2.38a0.72,0.72,0,0,1-.05-1.09l0.82-.8a0.82,0.82,0,0,1,.52-0.2l3.27,0.06L1252,986l-7.63-3.71a0.73,0.73,0,0,1-.27-1.08l1.13-1.56a0.73,0.73,0,0,1,.71-0.29l10.48,1.82,3.38-3.29a2.47,2.47,0,0,1,2.74-.47,1.94,1.94,0,0,1,.71.44h0a2,2,0,0,1,.47.72,2.35,2.35,0,0,1-.49,2.69l-3.37,3.27,1.93,10.09a0.73,0.73,0,0,1-.3.73l-1.61,1.1A0.73,0.73,0,0,1,1259.53,996.67ZM1255.2,987h0.12a0.73,0.73,0,0,1,.53.38l4,7.54,0.54-.37-1.91-10a0.73,0.73,0,0,1,.21-0.66l3.65-3.54a0.9,0.9,0,0,0,.18-1l0-.06a0.62,0.62,0,0,0-.11-0.2l-0.07-.06a0.67,0.67,0,0,0-.21-0.11,1.07,1.07,0,0,0-1.2.16l-3.65,3.54a0.73,0.73,0,0,1-.63.19l-10.39-1.81-0.36.49,7.78,3.78a0.72,0.72,0,0,1,.19,1.17l-2.76,2.71a0.8,0.8,0,0,1-.52.21l-3.27-.06,0,0,2.39,1.91,0.1,0.09,2,2.34,0,0-0.07-3.14a0.73,0.73,0,0,1,.22-0.54l2.79-2.68A0.72,0.72,0,0,1,1255.2,987Zm7.59-8.51h0Z" transform="translate(-1081 -967.59)"/><path class="cls-8" d="M1107.25,1064.82h-14.49a0.72,0.72,0,0,1-.72-0.72v-8.7a0.72,0.72,0,0,1,.35-0.62l7.25-4.35a0.73,0.73,0,0,1,.75,0l7.25,4.35a0.72,0.72,0,0,1,.35.62v8.7A0.72,0.72,0,0,1,1107.25,1064.82Zm-13.77-1.45h13v-7.56l-6.52-3.91-6.52,3.91v7.56Z" transform="translate(-1081 -967.59)"/><path class="cls-8" d="M1108.7,1064.82H1091.3a0.72,0.72,0,0,1,0-1.45h17.39A0.72,0.72,0,0,1,1108.7,1064.82Z" transform="translate(-1081 -967.59)"/><path class="cls-8" d="M1110.15,1054.91a0.72,0.72,0,0,1-.38-0.11l-9.76-6-9.76,6a0.72,0.72,0,0,1-.76-1.23l10.15-6.28a0.73,0.73,0,0,1,.76,0l10.15,6.28A0.72,0.72,0,0,1,1110.15,1054.91Z" transform="translate(-1081 -967.59)"/><path class="cls-8" d="M1101.45,1064.82h-2.9a0.72,0.72,0,0,1-.72-0.72v-5a1.5,1.5,0,0,1,1.49-1.49h1.36a1.5,1.5,0,0,1,1.49,1.49v5A0.72,0.72,0,0,1,1101.45,1064.82Zm-2.17-1.45h1.44v-4.3l-1.4,0Z" transform="translate(-1081 -967.59)"/><path class="cls-8" d="M1319.5,1065h-13a1.47,1.47,0,0,1-1.47-1.47v-13.69a3,3,0,0,1,3-3h10a3,3,0,0,1,3,3v13.69A1.47,1.47,0,0,1,1319.5,1065ZM1308,1048.28a1.51,1.51,0,0,0-1.51,1.51v13.69l13,0a0,0,0,0,0,0,0v-13.69a1.51,1.51,0,0,0-1.51-1.51h-10Z" transform="translate(-1081 -967.59)"/><rect class="cls-8" x="226.2" y="90.11" width="11.6" height="1.45"/><path class="cls-8" d="M1310.1,1062.05h-2.17a0.72,0.72,0,1,1,0-1.45h2.17A0.72,0.72,0,1,1,1310.1,1062.05Z" transform="translate(-1081 -967.59)"/><path class="cls-8" d="M1318.07,1062.05h-2.17a0.72,0.72,0,1,1,0-1.45h2.17A0.72,0.72,0,1,1,1318.07,1062.05Z" transform="translate(-1081 -967.59)"/><path class="cls-8" d="M1322.42,1056.25a0.72,0.72,0,0,1-.72-0.72v-1.78a0.39,0.39,0,0,0-.39-0.39h-1.06a0.72,0.72,0,1,1,0-1.45h1.06a1.84,1.84,0,0,1,1.84,1.84v1.78A0.72,0.72,0,0,1,1322.42,1056.25Z" transform="translate(-1081 -967.59)"/><path class="cls-8" d="M1303.58,1056.25a0.72,0.72,0,0,1-.72-0.72v-1.78a1.84,1.84,0,0,1,1.84-1.84h1.06a0.72,0.72,0,1,1,0,1.45h-1.06a0.39,0.39,0,0,0-.39.39v1.78A0.72,0.72,0,0,1,1303.58,1056.25Z" transform="translate(-1081 -967.59)"/><path class="cls-8" d="M1308.65,1065v0.72h-0.72V1065h0.72m0-1.45h-0.72a1.45,1.45,0,0,0-1.45,1.45v0.72a1.45,1.45,0,0,0,1.45,1.45h0.72a1.45,1.45,0,0,0,1.45-1.45V1065a1.45,1.45,0,0,0-1.45-1.45h0Z" transform="translate(-1081 -967.59)"/><path class="cls-8" d="M1318.07,1065v0.72h-0.72V1065h0.72m0-1.45h-0.72a1.45,1.45,0,0,0-1.45,1.45v0.72a1.45,1.45,0,0,0,1.45,1.45h0.72a1.45,1.45,0,0,0,1.45-1.45V1065a1.45,1.45,0,0,0-1.45-1.45h0Z" transform="translate(-1081 -967.59)"/><path class="cls-8" d="M1312.28,1056.89a0.63,0.63,0,0,1-.48-1.05l5.07-5.8a0.63,0.63,0,1,1,1,.84l-5.07,5.8A0.63,0.63,0,0,1,1312.28,1056.89Z" transform="translate(-1081 -967.59)"/><path class="cls-8" d="M1309.38,1055.44a0.63,0.63,0,0,1-.49-1l3.62-4.35a0.63,0.63,0,0,1,1,.81l-3.62,4.35A0.63,0.63,0,0,1,1309.38,1055.44Z" transform="translate(-1081 -967.59)"/></svg>