<svg id="Layer_3" data-name="Layer 3" xmlns="http://www.w3.org/2000/svg" xmlns:xlink="http://www.w3.org/1999/xlink" viewBox="0 0 728 171"><defs><style>.cls-1,.cls-10,.cls-11,.cls-12,.cls-13,.cls-14,.cls-15,.cls-16,.cls-17,.cls-18,.cls-24,.cls-28,.cls-3,.cls-30,.cls-31,.cls-32,.cls-4,.cls-5,.cls-6,.cls-7,.cls-8,.cls-9{fill:none;}.cls-2{opacity:0.3;}.cls-10,.cls-11,.cls-12,.cls-13,.cls-14,.cls-15,.cls-16,.cls-17,.cls-18,.cls-19,.cls-23,.cls-27,.cls-28,.cls-3,.cls-30,.cls-31,.cls-32,.cls-4,.cls-5,.cls-6,.cls-7,.cls-8,.cls-9{stroke:#0073ae;}.cls-10,.cls-11,.cls-12,.cls-13,.cls-14,.cls-15,.cls-16,.cls-17,.cls-18,.cls-23,.cls-27,.cls-28,.cls-3,.cls-31,.cls-4,.cls-5,.cls-6,.cls-7,.cls-8,.cls-9{stroke-linecap:round;}.cls-10,.cls-11,.cls-12,.cls-13,.cls-14,.cls-15,.cls-16,.cls-17,.cls-18,.cls-23,.cls-27,.cls-28,.cls-3,.cls-30,.cls-31,.cls-4,.cls-5,.cls-6,.cls-7,.cls-8,.cls-9{stroke-linejoin:round;}.cls-10,.cls-11,.cls-12,.cls-13,.cls-14,.cls-15,.cls-16,.cls-17,.cls-3,.cls-4,.cls-5,.cls-6,.cls-7,.cls-8,.cls-9{stroke-width:3px;}.cls-4{stroke-dasharray:0 8;}.cls-5{stroke-dasharray:0 6.75;}.cls-6{stroke-dasharray:0 7;}.cls-7{stroke-dasharray:0 8.5;}.cls-8{stroke-dasharray:0 6.77;}.cls-9{stroke-dasharray:0 6.67;}.cls-10{stroke-dasharray:0 6.25;}.cls-11{stroke-dasharray:0 7.15;}.cls-12{stroke-dasharray:0 7.2;}.cls-13{stroke-dasharray:0 6.83;}.cls-14{stroke-dasharray:0 7.6;}.cls-15{stroke-dasharray:0 7.5;}.cls-16{stroke-dasharray:0 7.09;}.cls-17{stroke-dasharray:0 6.8;}.cls-18,.cls-19,.cls-23,.cls-24,.cls-27,.cls-28,.cls-30,.cls-32{stroke-width:2px;}.cls-18{opacity:0.2;}.cls-18,.cls-21{isolation:isolate;}.cls-19,.cls-25,.cls-27{fill:#fff;}.cls-19,.cls-24,.cls-32{stroke-miterlimit:10;}.cls-20{fill:#ffdbb2;}.cls-21{fill:#f80;opacity:0.5;}.cls-22{fill:#0073ae;}.cls-23,.cls-29{fill:#b2d5e6;}.cls-24{stroke:#ffdbb2;}.cls-26{clip-path:url(#clip-path);}.cls-31{stroke-width:1.75px;}</style><clipPath id="clip-path" transform="translate(-298 -822)"><circle class="cls-1" cx="662" cy="907" r="18"/></clipPath></defs><title>VectorSmartObject2</title><g class="cls-2"><line class="cls-3" x1="223.5" y1="34.5" x2="223.5" y2="34.5"/><line class="cls-3" x1="229.5" y1="34.5" x2="229.5" y2="34.5"/><line class="cls-4" x1="229.5" y1="42.5" x2="229.5" y2="46.5"/><line class="cls-3" x1="229.5" y1="50.5" x2="229.5" y2="50.5"/><line class="cls-5" x1="236.3" y1="50.5" x2="253.1" y2="50.5"/><line class="cls-3" x1="256.5" y1="50.5" x2="256.5" y2="50.5"/></g><g class="cls-2"><line class="cls-3" x1="54.5" y1="61.5" x2="54.5" y2="61.5"/><line class="cls-6" x1="61.5" y1="61.5" x2="163" y2="61.5"/><line class="cls-3" x1="166.5" y1="61.5" x2="166.5" y2="61.5"/><line class="cls-7" x1="166.5" y1="70" x2="166.5" y2="74.3"/><line class="cls-3" x1="166.5" y1="78.5" x2="166.5" y2="78.5"/><line class="cls-8" x1="173.3" y1="78.5" x2="251.1" y2="78.5"/><line class="cls-3" x1="254.5" y1="78.5" x2="254.5" y2="78.5"/></g><g class="cls-2"><line class="cls-3" x1="91.5" y1="115.5" x2="91.5" y2="115.5"/><line class="cls-9" x1="98.2" y1="115.5" x2="108.2" y2="115.5"/><line class="cls-3" x1="111.5" y1="115.5" x2="111.5" y2="115.5"/><line class="cls-10" x1="111.5" y1="109.3" x2="111.5" y2="93.6"/><line class="cls-3" x1="111.5" y1="90.5" x2="111.5" y2="90.5"/><line class="cls-11" x1="118.6" y1="90.5" x2="250.9" y2="90.5"/><line class="cls-3" x1="254.5" y1="90.5" x2="254.5" y2="90.5"/></g><g class="cls-2"><line class="cls-3" x1="173.5" y1="144.5" x2="173.5" y2="144.5"/><line class="cls-9" x1="180.2" y1="144.5" x2="210.2" y2="144.5"/><line class="cls-3" x1="213.5" y1="144.5" x2="213.5" y2="144.5"/><line class="cls-12" x1="213.5" y1="137.3" x2="213.5" y2="112.1"/><line class="cls-3" x1="213.5" y1="108.5" x2="213.5" y2="108.5"/><line class="cls-13" x1="220.3" y1="108.5" x2="251.1" y2="108.5"/><line class="cls-3" x1="254.5" y1="108.5" x2="254.5" y2="108.5"/></g><g class="cls-2"><line class="cls-3" x1="550.5" y1="24.5" x2="550.5" y2="24.5"/><line class="cls-14" x1="542.9" y1="24.5" x2="516.3" y2="24.5"/><line class="cls-3" x1="512.5" y1="24.5" x2="512.5" y2="24.5"/><line class="cls-12" x1="512.5" y1="31.7" x2="512.5" y2="56.9"/><line class="cls-3" x1="512.5" y1="60.5" x2="512.5" y2="60.5"/><line class="cls-13" x1="505.7" y1="60.5" x2="474.9" y2="60.5"/><line class="cls-3" x1="471.5" y1="60.5" x2="471.5" y2="60.5"/></g><g class="cls-2"><line class="cls-3" x1="626.5" y1="52.5" x2="626.5" y2="52.5"/><line class="cls-15" x1="619" y1="52.5" x2="615.3" y2="52.5"/><line class="cls-3" x1="611.5" y1="52.5" x2="611.5" y2="52.5"/><line class="cls-6" x1="611.5" y1="59.5" x2="611.5" y2="77"/><line class="cls-3" x1="611.5" y1="80.5" x2="611.5" y2="80.5"/><line class="cls-6" x1="604.5" y1="80.5" x2="475" y2="80.5"/><line class="cls-3" x1="471.5" y1="80.5" x2="471.5" y2="80.5"/></g><g class="cls-2"><line class="cls-3" x1="672.5" y1="106.5" x2="672.5" y2="106.5"/><line class="cls-13" x1="665.7" y1="106.5" x2="552.9" y2="106.5"/><line class="cls-3" x1="549.5" y1="106.5" x2="549.5" y2="106.5"/><line class="cls-15" x1="549.5" y1="99" x2="549.5" y2="95.3"/><line class="cls-3" x1="549.5" y1="91.5" x2="549.5" y2="91.5"/><line class="cls-16" x1="542.4" y1="91.5" x2="475" y2="91.5"/><line class="cls-3" x1="471.5" y1="91.5" x2="471.5" y2="91.5"/></g><g class="cls-2"><line class="cls-3" x1="554.5" y1="145.5" x2="554.5" y2="145.5"/><line class="cls-6" x1="547.5" y1="145.5" x2="509" y2="145.5"/><line class="cls-3" x1="505.5" y1="145.5" x2="505.5" y2="145.5"/><line class="cls-14" x1="505.5" y1="137.9" x2="505.5" y2="111.3"/><line class="cls-3" x1="505.5" y1="107.5" x2="505.5" y2="107.5"/><line class="cls-17" x1="498.7" y1="107.5" x2="474.9" y2="107.5"/><line class="cls-3" x1="471.5" y1="107.5" x2="471.5" y2="107.5"/></g><circle class="cls-18" cx="580.5" cy="25.5" r="24.5"/><circle class="cls-18" cx="193.5" cy="34.5" r="24.5"/><circle class="cls-18" cx="25.5" cy="61.5" r="24.5"/><circle class="cls-18" cx="63.5" cy="115.5" r="24.5"/><circle class="cls-18" cx="142.5" cy="145.5" r="24.5"/><circle class="cls-18" cx="656.5" cy="52.5" r="24.5"/><circle class="cls-18" cx="702.5" cy="106.5" r="24.5"/><circle class="cls-18" cx="583.5" cy="145.5" r="24.5"/><path class="cls-19" d="M755,983.5a6.12,6.12,0,0,1-6.1,6.1H576.1a6.12,6.12,0,0,1-6.1-6.1V854.1a6.12,6.12,0,0,1,6.1-6.1H749a6.12,6.12,0,0,1,6.1,6.1V983.5" transform="translate(-298 -822)"/><polyline class="cls-20" points="450 149 279 149 279 33.2 450 33.2 450 149"/><polyline class="cls-21" points="450 36 279 36 279 33.2 450 33.2 450 36"/><path class="cls-21" d="M727,971H598v-5.8a1.22,1.22,0,0,1,1.2-1.2H725.9a1.22,1.22,0,0,1,1.2,1.2V971" transform="translate(-298 -822)"/><circle class="cls-22" cx="364.5" cy="29.8" r="1.5"/><path class="cls-23" d="M686.9,978a8.1,8.1,0,0,1-7.4,5h-35a8.1,8.1,0,0,1-7.4-5H545v3.7a8.28,8.28,0,0,0,8.3,8.3H770.7a8.28,8.28,0,0,0,8.3-8.3V978H686.9Z" transform="translate(-298 -822)"/><line class="cls-24" x1="420" y1="140" x2="420" y2="149"/><path class="cls-25" d="M688.4,951H635.6a1.58,1.58,0,0,1-1.6-1.6V875.6a1.58,1.58,0,0,1,1.6-1.6h52.8a1.58,1.58,0,0,1,1.6,1.6v73.8A1.58,1.58,0,0,1,688.4,951Z" transform="translate(-298 -822)"/><circle class="cls-20" cx="364" cy="85" r="18"/><g class="cls-26"><path class="cls-27" d="M675.6,920.4l-1.3-4.7a2,2,0,0,0-1.1-1.3l-7.5-3.3h0v-1.4a9.23,9.23,0,0,0,1.8-5.7v-1.8a5.68,5.68,0,0,0-5.5-5.8h0a5.62,5.62,0,0,0-5.5,5.8V904a9.23,9.23,0,0,0,1.8,5.7v1.4h0l-7.5,3.3a2.36,2.36,0,0,0-1.1,1.3l-1.3,4.7a0.7,0.7,0,0,0,.7.9l12.9,6.6h0l12.9-6.6A0.7,0.7,0,0,0,675.6,920.4Z" transform="translate(-298 -822)"/></g><circle class="cls-28" cx="364" cy="85" r="18"/><path class="cls-20" d="M656.5,946h-12a3.54,3.54,0,0,1-3.5-3.5h0a3.54,3.54,0,0,1,3.5-3.5h12a3.54,3.54,0,0,1,3.5,3.5h0A3.54,3.54,0,0,1,656.5,946Z" transform="translate(-298 -822)"/><path class="cls-29" d="M679.5,946h-12a3.54,3.54,0,0,1-3.5-3.5h0a3.54,3.54,0,0,1,3.5-3.5h12a3.54,3.54,0,0,1,3.5,3.5h0A3.54,3.54,0,0,1,679.5,946Z" transform="translate(-298 -822)"/><path class="cls-28" d="M988.2,935.1l11.1-9.6a8.5,8.5,0,0,1,2.7-8.4,8.64,8.64,0,0,1,9.8-1l-6.1,5.5,3.7,4.3,6-5.5a8.38,8.38,0,0,1-2.3,9.5,8.24,8.24,0,0,1-8.7,1.5L993.3,941a4,4,0,0,1-5.6-.3h0a4.18,4.18,0,0,1,.5-5.6h0Z" transform="translate(-298 -822)"/><path class="cls-28" d="M869,966v-1a12,12,0,0,1,12-12h1a12,12,0,0,1,12,12v1" transform="translate(-298 -822)"/><path class="cls-28" d="M894,976h0a3,3,0,0,1-3-3v-4a3,3,0,0,1,3-3h0a3,3,0,0,1,3,3v4A3,3,0,0,1,894,976Z" transform="translate(-298 -822)"/><path class="cls-28" d="M869,976h0a3,3,0,0,1-3-3v-4a3,3,0,0,1,3-3h0a3,3,0,0,1,3,3v4A3,3,0,0,1,869,976Z" transform="translate(-298 -822)"/><path class="cls-28" d="M894,976s0,7-13,7" transform="translate(-298 -822)"/><path class="cls-22" d="M881.5,979a1.5,1.5,0,1,1-1.5,1.5,1.54,1.54,0,0,1,1.5-1.5m0-1.7a3.3,3.3,0,1,0,3.3,3.3,3.33,3.33,0,0,0-3.3-3.3h0Z" transform="translate(-298 -822)"/><path class="cls-28" d="M871,959l0.8,0.7a1.38,1.38,0,0,0,2.1-.2,9.24,9.24,0,0,1,7.2-3.6h0.8a9.32,9.32,0,0,1,7.1,3.4,1.42,1.42,0,0,0,2.2-.1l0.8-1" transform="translate(-298 -822)"/><path class="cls-28" d="M954.9,861.5a9.48,9.48,0,0,0-9.6,9.3c0,6.3,4.6,6.9,5.2,10.4a1.77,1.77,0,0,0,1.7,1.8h5.2a1.71,1.71,0,0,0,1.7-1.8c0.6-3.6,5.2-4,5.2-10.4A9.18,9.18,0,0,0,954.9,861.5Z" transform="translate(-298 -822)"/><line class="cls-28" x1="654" y1="64" x2="660" y2="64"/><line class="cls-30" x1="657" y1="52" x2="657" y2="61"/><line class="cls-28" x1="654" y1="67" x2="660" y2="67"/><line class="cls-28" x1="656" y1="69" x2="658" y2="69"/><path class="cls-22" d="M955,869a2,2,0,1,1-2,2,2,2,0,0,1,2-2m0-2a4,4,0,1,0,4,4,4,4,0,0,0-4-4h0Z" transform="translate(-298 -822)"/><path class="cls-28" d="M879,833a15,15,0,1,1-15,15,15.36,15.36,0,0,1,1.9-7.4" transform="translate(-298 -822)"/><polyline class="cls-30" points="564.3 17.8 569.3 16.7 570.4 21.7"/><path class="cls-22" d="M878.5,847a1.5,1.5,0,1,1-1.5,1.5,1.54,1.54,0,0,1,1.5-1.5m0-1.7a3.3,3.3,0,1,0,3.3,3.3,3.33,3.33,0,0,0-3.3-3.3h0Z" transform="translate(-298 -822)"/><line class="cls-31" x1="582" y1="25" x2="588" y2="19"/><line class="cls-31" x1="582" y1="28" x2="586" y2="32"/><path class="cls-32" d="M363.9,943.1a1.38,1.38,0,0,0,1.8-.2c0.5-.5,2.1-2.5,2.1-2.5a1,1,0,0,1,1.3-.1c0.8,0.5,2.2,1.5,5.1,3.4a0.94,0.94,0,0,1,.3,1,15.26,15.26,0,0,1-5.3,5c-0.7.5-2.4,0-2.4,0s-13.6-3.1-18.3-17.1a3.44,3.44,0,0,1,0-1.8s0.4-2.5,4.1-5.7a1.11,1.11,0,0,1,1.3,0,53.59,53.59,0,0,1,4.1,5.1,0.9,0.9,0,0,1-.1,1.1,11.43,11.43,0,0,0-2.5,2.9,1.25,1.25,0,0,0,.2,1.1A22.42,22.42,0,0,0,363.9,943.1Z" transform="translate(-298 -822)"/><path class="cls-32" d="M432.3,982h-3.5a2.8,2.8,0,0,1-2.8-2.8V955.7a2.8,2.8,0,0,1,2.8-2.8h3.5a2.8,2.8,0,0,1,2.8,2.8v23.5A2.86,2.86,0,0,1,432.3,982Z" transform="translate(-298 -822)"/><path class="cls-32" d="M450.3,980H435V955h15.3a3.76,3.76,0,0,1,3.7,3.7v17.6A3.76,3.76,0,0,1,450.3,980Z" transform="translate(-298 -822)"/><path class="cls-32" d="M448.8,965h-8.6a1.16,1.16,0,0,1-1.2-1.2v-4.6a1.16,1.16,0,0,1,1.2-1.2h8.6a1.16,1.16,0,0,1,1.2,1.2v4.6A1.16,1.16,0,0,1,448.8,965Z" transform="translate(-298 -822)"/><line class="cls-28" x1="141" y1="147" x2="142" y2="147"/><line class="cls-28" x1="146" y1="147" x2="147" y2="147"/><line class="cls-28" x1="151" y1="147" x2="152" y2="147"/><line class="cls-28" x1="141" y1="150" x2="142" y2="150"/><line class="cls-28" x1="146" y1="150" x2="147" y2="150"/><line class="cls-28" x1="151" y1="150" x2="152" y2="150"/><line class="cls-28" x1="141" y1="153" x2="142" y2="153"/><line class="cls-28" x1="146" y1="153" x2="147" y2="153"/><line class="cls-28" x1="151" y1="153" x2="152" y2="153"/><path class="cls-28" d="M328.7,898H318.4a3.33,3.33,0,0,1-3.3-3.3V872.4a3.33,3.33,0,0,1,3.3-3.3h10.3a3.33,3.33,0,0,1,3.3,3.3v22.3A3.33,3.33,0,0,1,328.7,898Z" transform="translate(-298 -822)"/><line class="cls-28" x1="24" y1="51" x2="27" y2="51"/><line class="cls-28" x1="25" y1="72" x2="26" y2="72"/><line class="cls-28" x1="18" y1="68" x2="33" y2="68"/><path class="cls-28" d="M504.4,868H478.7a2.58,2.58,0,0,1-2.6-2.6V846.7a2.58,2.58,0,0,1,2.6-2.6h25.7a2.58,2.58,0,0,1,2.6,2.6v18.7A2.65,2.65,0,0,1,504.4,868Z" transform="translate(-298 -822)"/><line class="cls-28" x1="189.5" y1="50" x2="197.5" y2="50"/><line class="cls-28" x1="179" y1="41" x2="208" y2="41"/></svg>