<?xml version="1.0" encoding="utf-8"?>
<!-- Generator: Adobe Illustrator 19.2.1, SVG Export Plug-In . SVG Version: 6.00 Build 0)  -->
<svg version="1.1" id="Layer_3" xmlns="http://www.w3.org/2000/svg" xmlns:xlink="http://www.w3.org/1999/xlink" x="0px" y="0px"
	 viewBox="0 0 732 186" style="enable-background:new 0 0 732 186;" xml:space="preserve">
<style type="text/css">
	.st0{opacity:0.3;}
	.st1{fill:none;stroke:#0073AE;stroke-width:3;stroke-linecap:round;stroke-linejoin:round;}
	.st2{fill:none;stroke:#0073AE;stroke-width:3;stroke-linecap:round;stroke-linejoin:round;stroke-dasharray:0,6.67;}
	.st3{fill:none;stroke:#0073AE;stroke-width:3;stroke-linecap:round;stroke-linejoin:round;stroke-dasharray:0,8;}
	.st4{fill:none;stroke:#0073AE;stroke-width:3;stroke-linecap:round;stroke-linejoin:round;stroke-dasharray:0,6.63;}
	.st5{fill:none;stroke:#0073AE;stroke-width:3;stroke-linecap:round;stroke-linejoin:round;stroke-dasharray:0,7.33;}
	.st6{fill:none;stroke:#0073AE;stroke-width:3;stroke-linecap:round;stroke-linejoin:round;stroke-dasharray:0,6.92;}
	.st7{fill:none;stroke:#0073AE;stroke-width:3;stroke-linecap:round;stroke-linejoin:round;stroke-dasharray:0,7.12;}
	.st8{fill:none;stroke:#0073AE;stroke-width:3;stroke-linecap:round;stroke-linejoin:round;stroke-dasharray:0,6.25;}
	.st9{fill:none;stroke:#0073AE;stroke-width:3;stroke-linecap:round;stroke-linejoin:round;stroke-dasharray:0,7.07;}
	.st10{fill:none;stroke:#0073AE;stroke-width:3;stroke-linecap:round;stroke-linejoin:round;stroke-dasharray:0,7.25;}
	.st11{fill:none;stroke:#0073AE;stroke-width:3;stroke-linecap:round;stroke-linejoin:round;stroke-dasharray:0,7.4;}
	.st12{fill:none;stroke:#0073AE;stroke-width:3;stroke-linecap:round;stroke-linejoin:round;stroke-dasharray:0,6.9;}
	.st13{fill:none;stroke:#0073AE;stroke-width:3;stroke-linecap:round;stroke-linejoin:round;stroke-dasharray:0,7.2;}
	.st14{fill:none;stroke:#0073AE;stroke-width:3;stroke-linecap:round;stroke-linejoin:round;stroke-dasharray:0,7.06;}
	.st15{fill:none;stroke:#0073AE;stroke-width:3;stroke-linecap:round;stroke-linejoin:round;stroke-dasharray:0,7;}
	.st16{fill:none;stroke:#0073AE;stroke-width:3;stroke-linecap:round;stroke-linejoin:round;stroke-dasharray:0,7.67;}
	.st17{fill:none;stroke:#0073AE;stroke-width:3;stroke-linecap:round;stroke-linejoin:round;stroke-dasharray:0,6.87;}
	.st18{fill:none;stroke:#0073AE;stroke-width:3;stroke-linecap:round;stroke-linejoin:round;stroke-dasharray:0,6;}
	.st19{fill:#B2D5E6;stroke:#0073AE;stroke-width:2;stroke-miterlimit:10;}
	.st20{fill:#FFFFFF;stroke:#0073AE;stroke-width:2;stroke-miterlimit:10;}
	.st21{fill:#FFDBB2;stroke:#FF8800;stroke-width:2;stroke-miterlimit:10;}
	.st22{opacity:0.5;fill:#0073AE;enable-background:new    ;}
	.st23{fill:none;stroke:#FFFFFF;stroke-width:2;stroke-linecap:round;stroke-linejoin:round;}
	
		.st24{opacity:0.2;fill:none;stroke:#0073AE;stroke-width:2;stroke-linecap:round;stroke-linejoin:round;enable-background:new    ;}
	.st25{fill:#0073AE;stroke:#0073AE;stroke-width:0.75;stroke-miterlimit:10;}
	.st26{fill:none;stroke:#0073AE;stroke-width:2;stroke-linecap:round;stroke-linejoin:round;}
	.st27{fill:none;stroke:#0073AE;stroke-width:2;stroke-miterlimit:10;}
	.st28{fill:#0073AE;}
	.st29{fill:none;stroke:#0073AE;stroke-width:1.75;stroke-linecap:round;stroke-linejoin:round;}
	.st30{fill:none;stroke:#0073AE;stroke-width:1.75;stroke-miterlimit:10;}
</style>
<title>VectorSmartObject</title>
<g class="st0">
	<line class="st1" x1="209.5" y1="26.5" x2="209.5" y2="26.5"/>
	<line class="st2" x1="216.2" y1="26.5" x2="226.2" y2="26.5"/>
	<line class="st1" x1="229.5" y1="26.5" x2="229.5" y2="26.5"/>
	<line class="st3" x1="229.5" y1="34.5" x2="229.5" y2="38.5"/>
	<line class="st1" x1="229.5" y1="42.5" x2="229.5" y2="42.5"/>
	<line class="st4" x1="236.1" y1="42.5" x2="279.2" y2="42.5"/>
	<line class="st1" x1="282.5" y1="42.5" x2="282.5" y2="42.5"/>
</g>
<g class="st0">
	<line class="st1" x1="94.5" y1="46.5" x2="94.5" y2="46.5"/>
	<line class="st5" x1="101.8" y1="46.5" x2="112.8" y2="46.5"/>
	<line class="st1" x1="116.5" y1="46.5" x2="116.5" y2="46.5"/>
	<line class="st3" x1="116.5" y1="54.5" x2="116.5" y2="66.5"/>
	<line class="st1" x1="116.5" y1="70.5" x2="116.5" y2="70.5"/>
	<line class="st6" x1="123.4" y1="70.5" x2="279" y2="70.5"/>
	<line class="st1" x1="282.5" y1="70.5" x2="282.5" y2="70.5"/>
</g>
<g class="st0">
	<line class="st1" x1="55.5" y1="119.5" x2="55.5" y2="119.5"/>
	<line class="st7" x1="62.6" y1="119.5" x2="172.9" y2="119.5"/>
	<line class="st1" x1="176.5" y1="119.5" x2="176.5" y2="119.5"/>
	<line class="st8" x1="176.5" y1="113.3" x2="176.5" y2="97.6"/>
	<line class="st1" x1="176.5" y1="94.5" x2="176.5" y2="94.5"/>
	<line class="st9" x1="183.6" y1="94.5" x2="279" y2="94.5"/>
	<line class="st1" x1="282.5" y1="94.5" x2="282.5" y2="94.5"/>
</g>
<g class="st0">
	<line class="st1" x1="154.5" y1="160.5" x2="154.5" y2="160.5"/>
	<line class="st10" x1="161.8" y1="160.5" x2="208.9" y2="160.5"/>
	<line class="st1" x1="212.5" y1="160.5" x2="212.5" y2="160.5"/>
	<line class="st11" x1="212.5" y1="153.1" x2="212.5" y2="127.2"/>
	<line class="st1" x1="212.5" y1="123.5" x2="212.5" y2="123.5"/>
	<line class="st12" x1="219.4" y1="123.5" x2="278" y2="123.5"/>
	<line class="st1" x1="281.5" y1="123.5" x2="281.5" y2="123.5"/>
</g>
<g class="st0">
	<line class="st1" x1="586.5" y1="26.5" x2="586.5" y2="26.5"/>
	<line class="st2" x1="579.8" y1="26.5" x2="529.8" y2="26.5"/>
	<line class="st1" x1="526.5" y1="26.5" x2="526.5" y2="26.5"/>
	<line class="st13" x1="526.5" y1="33.7" x2="526.5" y2="58.9"/>
	<line class="st1" x1="526.5" y1="62.5" x2="526.5" y2="62.5"/>
	<line class="st2" x1="519.8" y1="62.5" x2="469.8" y2="62.5"/>
	<line class="st1" x1="466.5" y1="62.5" x2="466.5" y2="62.5"/>
</g>
<g class="st0">
	<line class="st1" x1="677.5" y1="66.5" x2="677.5" y2="66.5"/>
	<line class="st14" x1="670.4" y1="66.5" x2="568" y2="66.5"/>
	<line class="st1" x1="564.5" y1="66.5" x2="564.5" y2="66.5"/>
	<line class="st3" x1="564.5" y1="74.5" x2="564.5" y2="86.5"/>
	<line class="st1" x1="564.5" y1="90.5" x2="564.5" y2="90.5"/>
	<line class="st15" x1="557.5" y1="90.5" x2="470" y2="90.5"/>
	<line class="st1" x1="466.5" y1="90.5" x2="466.5" y2="90.5"/>
</g>
<g class="st0">
	<line class="st1" x1="647.5" y1="142.5" x2="647.5" y2="142.5"/>
	<line class="st16" x1="639.8" y1="142.5" x2="628.3" y2="142.5"/>
	<line class="st1" x1="624.5" y1="142.5" x2="624.5" y2="142.5"/>
	<line class="st15" x1="624.5" y1="135.5" x2="624.5" y2="118"/>
	<line class="st1" x1="624.5" y1="114.5" x2="624.5" y2="114.5"/>
	<line class="st17" x1="617.6" y1="114.5" x2="469.9" y2="114.5"/>
	<line class="st1" x1="466.5" y1="114.5" x2="466.5" y2="114.5"/>
</g>
<g class="st0">
	<line class="st1" x1="527.5" y1="159.5" x2="527.5" y2="159.5"/>
	<line class="st18" x1="521.5" y1="159.5" x2="512.5" y2="159.5"/>
	<line class="st1" x1="509.5" y1="159.5" x2="509.5" y2="159.5"/>
	<line class="st3" x1="509.5" y1="151.5" x2="509.5" y2="147.5"/>
	<line class="st1" x1="509.5" y1="143.5" x2="509.5" y2="143.5"/>
	<line class="st5" x1="502.2" y1="143.5" x2="469.2" y2="143.5"/>
	<line class="st1" x1="465.5" y1="143.5" x2="465.5" y2="143.5"/>
</g>
<path class="st19" d="M447.4,147.1h-148c-2.2,0-4-1.8-4-4V15.3c0-2.2,1.8-4,4-4h148c2.2,0,4,1.8,4,4v127.8
	C451.4,145.3,449.6,147.1,447.4,147.1z"/>
<path class="st19" d="M350.5,15.3v127.8c0,2.2,1.8,4,4,4h93c2.2,0,4-1.8,4-4V15.3c0-2.2-1.8-4-4-4h-93
	C352.3,11.3,350.5,13.1,350.5,15.3z"/>
<path class="st20" d="M451.3,15.1c-0.1-2.1-1.9-3.7-4-3.6h-93c-2.1-0.1-3.9,1.5-4,3.6v39.6c0,12.6,22.6,22.9,50.4,22.9
	s50.4-10.3,50.4-22.9c0-0.4,0-0.7-0.1-1.1c0-0.1,0-0.2,0.1-0.2V15.1H451.3L451.3,15.1z"/>
<path class="st21" d="M430.7,61.7h-59.6c-1.7,0-3-1.3-3-3V25.5c0-1.7,1.3-3,3-3h59.6c1.7,0,3,1.3,3,3v33.2
	C433.7,60.4,432.4,61.7,430.7,61.7z"/>
<path class="st20" d="M383.7,94.4h-5.2c-1.7,0-3.2-1.4-3.2-3.1c0,0,0-0.1,0-0.1V86c0-1.7,1.4-3.2,3.1-3.2c0,0,0.1,0,0.1,0h5.2
	c1.7,0,3.2,1.4,3.2,3.1c0,0,0,0.1,0,0.1v5.2C386.9,92.9,385.5,94.4,383.7,94.4C383.8,94.4,383.7,94.4,383.7,94.4z"/>
<path class="st20" d="M403,94.4h-5.2c-1.7,0-3.2-1.4-3.2-3.1c0,0,0-0.1,0-0.1V86c0-1.7,1.4-3.2,3.1-3.2c0,0,0.1,0,0.1,0h5.2
	c1.7,0,3.2,1.4,3.2,3.1c0,0,0,0.1,0,0.1v5.2C406.2,92.9,404.8,94.4,403,94.4C403.1,94.4,403,94.4,403,94.4z"/>
<path class="st20" d="M422.3,94.4h-5.2c-1.7,0-3.2-1.4-3.2-3.1c0,0,0-0.1,0-0.1V86c0-1.7,1.4-3.2,3.1-3.2c0,0,0.1,0,0.1,0h5.2
	c1.7,0,3.2,1.4,3.2,3.1c0,0,0,0.1,0,0.1v5.2C425.5,92.9,424.1,94.4,422.3,94.4C422.4,94.4,422.3,94.4,422.3,94.4z"/>
<path class="st20" d="M383.7,113.7h-5.2c-1.7,0-3.2-1.4-3.2-3.1c0,0,0-0.1,0-0.1v-5.2c0-1.7,1.4-3.2,3.1-3.2c0,0,0.1,0,0.1,0h5.2
	c1.7,0,3.2,1.4,3.2,3.1c0,0,0,0.1,0,0.1v5.2C386.9,112.2,385.5,113.7,383.7,113.7C383.8,113.7,383.7,113.7,383.7,113.7z"/>
<path class="st20" d="M403,113.7h-5.2c-1.7,0-3.2-1.4-3.2-3.1c0,0,0-0.1,0-0.1v-5.2c0-1.7,1.4-3.2,3.1-3.2c0,0,0.1,0,0.1,0h5.2
	c1.7,0,3.2,1.4,3.2,3.1c0,0,0,0.1,0,0.1v5.2C406.2,112.2,404.8,113.7,403,113.7C403.1,113.7,403,113.7,403,113.7z"/>
<path class="st20" d="M422.3,113.7h-5.2c-1.7,0-3.2-1.4-3.2-3.1c0,0,0-0.1,0-0.1v-5.2c0-1.7,1.4-3.2,3.1-3.2c0,0,0.1,0,0.1,0h5.2
	c1.7,0,3.2,1.4,3.2,3.1c0,0,0,0.1,0,0.1v5.2C425.5,112.2,424.1,113.7,422.3,113.7C422.4,113.7,422.3,113.7,422.3,113.7z"/>
<path class="st20" d="M383.7,133h-5.2c-1.7,0-3.2-1.4-3.2-3.1c0,0,0-0.1,0-0.1v-5.2c0-1.7,1.4-3.2,3.1-3.2c0,0,0.1,0,0.1,0h5.2
	c1.7,0,3.2,1.4,3.2,3.1c0,0,0,0.1,0,0.1v5.2C386.9,131.5,385.5,133,383.7,133C383.8,133,383.7,133,383.7,133z"/>
<path class="st20" d="M403,133h-5.2c-1.7,0-3.2-1.4-3.2-3.1c0,0,0-0.1,0-0.1v-5.2c0-1.7,1.4-3.2,3.1-3.2c0,0,0.1,0,0.1,0h5.2
	c1.7,0,3.2,1.4,3.2,3.1c0,0,0,0.1,0,0.1v5.2C406.2,131.5,404.8,133,403,133C403.1,133,403,133,403,133z"/>
<path class="st20" d="M422.3,133h-5.2c-1.7,0-3.2-1.4-3.2-3.1c0,0,0-0.1,0-0.1v-5.2c0-1.7,1.4-3.2,3.1-3.2c0,0,0.1,0,0.1,0h5.2
	c1.7,0,3.2,1.4,3.2,3.1c0,0,0,0.1,0,0.1v5.2C425.5,131.5,424.1,133,422.3,133C422.4,133,422.3,133,422.3,133z"/>
<path class="st22" d="M308.6,139.2c-0.3,1.3-0.4,2.6-0.4,3.9c0,1.3,0.2,2.6,0.4,3.9h34.5c0.3-1.3,0.4-2.6,0.4-3.9
	c0-1.3-0.2-2.6-0.4-3.9c-1.5-14.1-5.9-64.3,2.5-107.9c1.2-2.7,1.8-5.7,1.8-8.7c0-3.9-1.1-7.8-3.1-11.2h-36.9
	c-2,3.4-3.1,7.3-3.1,11.2c0,3,0.6,5.9,1.8,8.7C314.5,74.8,310.1,125.1,308.6,139.2z"/>
<path class="st22" d="M451.3,14.9c0-0.9-0.4-1.7-1-2.3c-0.7-0.8-1.8-1.3-2.9-1.2h-5.6v135.7h5.6c2.2,0,4-1.8,4-4V15.3
	C451.3,15.2,451.3,15,451.3,14.9z"/>
<path class="st20" d="M342,31.3c1.2-2.7,1.8-5.7,1.8-8.7c0-11.9-9.7-21.6-21.6-21.6c-11.9,0-21.6,9.7-21.6,21.6l0,0
	c0,3,0.6,5.9,1.8,8.7c8.3,43.6,4,93.8,2.5,107.9c-0.3,1.3-0.4,2.6-0.4,3.9c0,9.8,7.9,17.7,17.7,17.7s17.7-7.9,17.7-17.7
	c0-1.3-0.2-2.6-0.4-3.9C338.1,125.1,333.7,74.8,342,31.3z"/>
<line class="st23" x1="396.4" y1="52.2" x2="394" y2="55"/>
<line class="st23" x1="417" y1="28" x2="399.4" y2="48.7"/>
<line class="st23" x1="405" y1="30" x2="392" y2="45"/>
<circle class="st24" cx="616.5" cy="26.5" r="24.5"/>
<circle class="st24" cx="179.5" cy="26.5" r="24.5"/>
<circle class="st24" cx="64.5" cy="46.5" r="24.5"/>
<circle class="st24" cx="25.5" cy="119.5" r="24.5"/>
<circle class="st24" cx="125.5" cy="160.5" r="24.5"/>
<circle class="st24" cx="706.5" cy="65.5" r="24.5"/>
<circle class="st24" cx="676.5" cy="143.5" r="24.5"/>
<circle class="st24" cx="556.5" cy="159.5" r="24.5"/>
<path class="st25" d="M616.5,10.6c-8.8,0-15.9,7.1-15.9,15.9c0,8.8,7.1,15.9,15.9,15.9c8.8,0,15.9-7.1,15.9-15.9
	C632.4,17.7,625.3,10.6,616.5,10.6C616.5,10.6,616.5,10.6,616.5,10.6z M631,22.9c-0.4,0-0.8,0.3-1,0.6c-0.3,0.5-0.2,1.1,0.1,1.5
	c0.1,0.1,0.2,0.3,0.2,0.5l-0.1,0.1c-0.4,0.2-0.7,0.6-0.8,1.1c-0.1,0.1-0.2,0.1-0.3,0.2c-1.2,0.5-1.8,1.7-1.6,3
	c0.3,1.6,0,2.6-2.2,5.6c-0.4,0.6-1,1.1-1.7,1.3c-0.2,0-0.3-0.1-0.4-0.2c-0.5-0.9-0.6-2-0.4-3c0.7-4.9-1.5-6.2-1.8-6.3
	c-0.3-0.1-0.5-0.1-0.8,0c-0.6,0.2-1.2,0.4-1.9,0.4c-1.3,0-2.1-0.8-2.5-2.3c-0.5-1.4,0.2-2.9,1.5-3.6c0.7-0.3,1.1-1,1.3-1.7
	c0-0.5-0.2-1-0.6-1.4c-0.3-0.2-0.4-0.5-0.4-0.8c0.1-0.3,0.3-0.6,0.6-0.8c1.1-0.1,2.5-0.4,3-1.3c0.2-0.4,0.3-0.9,0.1-1.3l0,0
	c0.1,0,0.2,0,0.2-0.1l0.3-0.1c0.7-0.2,1.3-0.7,1.7-1.3C627.2,15.2,629.8,18.8,631,22.9z M616.5,11.6c0.4,0,0.9,0,1.3,0.1v0.2
	c-0.1,0.2-0.3,0.3-0.5,0.3c-0.1,0-0.2,0.1-0.3,0.1c-0.3,0.1-0.6,0.2-0.9,0.3c-0.3,0.2-0.5,0.4-0.8,0.6l-0.4,0.4
	c-0.4,0.2-0.8,0.3-1.2,0.1c-0.3-0.4-0.4-1-0.2-1.5l-0.6-0.1C614.1,11.8,615.3,11.6,616.5,11.6z M610,13.1c-0.2,0.8,0,1.7,0.6,2.4
	c0.2,0.2,0.5,0.4,0.7,0.6l0.3,0.3c0.5,0.3,0.7,0.8,0.7,1.4c-0.3,0.6-0.7,1.1-1.1,1.6c-0.3,0.4-0.6,0.7-0.7,0.9s-0.1,0.3-0.6,0
	c-0.2-0.1-0.3-0.2-0.4-0.3c-0.3-0.3-0.7-0.5-1.1-0.5c-0.5,0-1,0.2-1.3,0.6l-0.1,0.1c-0.6,0.5-1.3,0.8-2.1,1
	c-0.2,0.1-0.5,0.2-0.7,0.3c-0.7,0.3-1.3,0.6-1.9,1.1C603.3,18.4,606.1,14.9,610,13.1z M601.6,26.5v-0.3c0.3,0.4,0.9,0.6,1.4,0.6
	c0.4,0,1,0,2.2,1.1c1.1,0.9,2.4,1.8,3.7,2.4c1,0.5,1.3,0.7,1.4,1c0.1,0.5,0.1,1-0.2,1.5c-0.3,0.6-0.4,1.2-0.4,1.9l0,0
	c-1.1,0.5-1.8,1.7-1.8,2.9c0,0.3-0.1,0.6-0.1,0.9C603.9,35.8,601.5,31.3,601.6,26.5z M616.5,41.4c-2.8,0-5.5-0.8-7.8-2.2
	c0-0.5,0.1-1,0.1-1.4c0-0.9,0.5-1.8,1.3-2.2c0.4-0.1,0.7-0.6,0.6-1c0-0.5,0.1-1,0.3-1.5c0.3-0.7,0.4-1.4,0.2-2.1
	c-0.2-0.9-0.9-1.2-1.9-1.7c-1.3-0.6-2.5-1.3-3.5-2.2c-0.7-0.8-1.8-1.3-2.9-1.3c-0.5,0-0.7,0-1-1.2c-0.1-0.3-0.2-0.5-0.2-0.8v-0.1
	l0.5,0.2c0.5-0.8,1.2-1.3,2-1.6c0.2-0.1,0.5-0.2,0.7-0.3c0.9-0.3,1.7-0.7,2.4-1.2l0.1-0.1c0.2-0.3,0.6-0.5,0.9-0.3
	c0.1,0,0.1,0.1,0.2,0.1c0.2,0.2,0.4,0.3,0.6,0.4c0.6,0.4,1.5,0.3,2-0.3c0,0,0,0,0-0.1c0.2-0.3,0.4-0.5,0.6-0.8
	c0.6-0.6,1.1-1.3,1.4-2.1c0.1-0.9-0.4-1.8-1.1-2.3c-0.1-0.1-0.3-0.2-0.4-0.3c-0.2-0.1-0.4-0.2-0.5-0.4c-0.5-0.6-0.5-1.4,0-2
	l-0.2-0.1c0.4-0.2,0.9-0.3,1.3-0.4c-0.1,0.8,0,1.6,0.5,2.2l0.1,0.1l0.1,0.1c0.3,0.2,0.6,0.3,1,0.3c0.5,0,0.9-0.1,1.3-0.4
	c0.2-0.1,0.4-0.3,0.5-0.5s0.3-0.4,0.5-0.5c0.2-0.1,0.4-0.1,0.6-0.2c0.1,0,0.3-0.1,0.4-0.1c0.5-0.1,1-0.5,1.2-1c0-0.1,0-0.2,0.1-0.3
	l0,0c1.3,0.2,2.5,0.6,3.7,1.1c-0.2,0.4-0.6,0.6-1.1,0.7l-0.3,0.1c-0.3,0-0.7,0.2-0.9,0.4l-0.7,0.8h0.7c0,0.1,0,0.2,0.1,0.2
	c0.1,0.1,0.1,0.3,0,0.4c-0.2,0.4-1.2,0.7-2.4,0.8h-0.1l-0.1,0.1c-0.6,0.4-1,0.9-1.1,1.6c-0.1,0.6,0.1,1.2,0.6,1.6
	c0.2,0.1,0.3,0.4,0.3,0.6c-0.2,0.4-0.5,0.8-0.9,1c-1,0.8-2.6,1.9-1.9,4.7c0.7,2.5,2.3,3.1,3.5,3.1c0.8,0,1.6-0.2,2.3-0.5
	c0.3,0.2,1.7,1.4,1.2,5.3c-0.2,1.7,0,3.1,0.6,3.8c0.3,0.4,0.7,0.5,1.2,0.5h0.1c1.1-0.2,2-0.8,2.5-1.7c2.3-3.1,2.8-4.5,2.4-6.4
	c-0.2-1.1,0.4-1.5,1.1-2c0.4-0.2,0.6-0.4,0.8-0.8c0.1-0.2,0.2-0.5,0.4-0.6c0.6-0.4,0.8-0.9,0.2-1.9c-0.1-0.1-0.2-0.3-0.1-0.5
	c0.1-0.1,0.2-0.1,0.3-0.2c0.1,0.9,0.2,1.7,0.2,2.6c0.2,8-6.1,14.6-14.1,14.8C616.8,41.4,616.7,41.4,616.5,41.4z"/>
<path class="st26" d="M719.1,54.4c-0.1-0.3-0.2-0.5-0.4-0.7l0,0c-0.2-0.2-0.4-0.3-0.7-0.4c-0.9-0.4-2-0.3-2.7,0.4l-5,4.9l-15-2.6
	l-1.6,2.1l11.8,5.7l-3.8,3.7l-4.9-0.1l-1.1,1.1l4.2,3.3l3.5,4l1.1-1.1l-0.1-4.8l3.9-3.7l6,11.4l2.2-1.5l-2.8-14.5l5-4.9
	C719.4,56.1,719.6,55.2,719.1,54.4z"/>
<polygon class="st26" points="567,169 547,169 547,157 557,151 567,157 "/>
<line class="st26" x1="569" y1="169" x2="545" y2="169"/>
<polyline class="st26" points="543,155.3 557,146.7 571,155.3 "/>
<path class="st26" d="M559,169h-4v-6.9c0-0.6,0.5-1.1,1.1-1.1h1.9c0.6,0,1.1,0.5,1.1,1.1L559,169L559,169z"/>
<path class="st27" d="M686,154h-18c-0.6,0-1-0.4-1-1v-18.9c0-1.7,1.4-3.1,3.1-3.1h13.8c1.7,0,3.1,1.4,3.1,3.1V153
	C687,153.5,686.5,154,686,154z"/>
<line class="st27" x1="669" y1="146" x2="685" y2="146"/>
<line class="st26" x1="670" y1="150" x2="673" y2="150"/>
<line class="st26" x1="681" y1="150" x2="684" y2="150"/>
<path class="st26" d="M690,142v-2.5c0-0.8-0.6-1.5-1.4-1.5c0,0,0,0-0.1,0H687"/>
<path class="st26" d="M664,142v-2.5c0-0.8,0.6-1.5,1.4-1.5c0,0,0,0,0.1,0h1.5"/>
<path class="st28" d="M671,155v1h-1v-1H671 M671,153h-1c-1.1,0-2,0.9-2,2v1c0,1.1,0.9,2,2,2h1c1.1,0,2-0.9,2-2v-1
	C673,153.9,672.1,153,671,153L671,153z"/>
<path class="st28" d="M684,155v1h-1v-1H684 M684,153h-1c-1.1,0-2,0.9-2,2v1c0,1.1,0.9,2,2,2h1c1.1,0,2-0.9,2-2v-1
	C686,153.9,685.1,153,684,153L684,153z"/>
<line class="st29" x1="683" y1="135" x2="676" y2="143"/>
<line class="st29" x1="677" y1="135" x2="672" y2="141"/>
<path class="st26" d="M64.5,31c-5.1-0.1-9.3,3.9-9.4,9c0,0.1,0,0.1,0,0.2c0,6.8,6.3,13.1,9.4,16.8c3.1-3.7,9.4-10.1,9.4-16.8
	C73.8,35.1,69.6,31,64.5,31z M64.4,45.3c-2.5,0.1-4.6-1.8-4.7-4.3c-0.1-2.5,1.8-4.6,4.3-4.7s4.6,1.8,4.7,4.3c0,0.1,0,0.1,0,0.2
	C68.8,43.2,66.9,45.2,64.4,45.3C64.4,45.3,64.4,45.3,64.4,45.3z"/>
<path class="st29" d="M59,56.3c-1.8,0.4-3,1-3,1.7c0,1.3,3.8,2.3,8.5,2.3s8.5-1,8.5-2.3c0-0.7-1.2-1.3-3-1.7"/>
<path class="st27" d="M35.8,127.6H15.6v-0.1c-3.2-0.5-5.6-3.3-5.6-6.6c0-3.6,2.9-6.6,6.6-6.6c0,0,0,0,0,0h0.5
	c1.4-3.1,4.4-5.1,7.8-5.1c2.7,0,5.2,1.3,6.8,3.5c0.3-0.1,0.7-0.1,1-0.1c1.7,0,3.2,1.2,3.6,2.9c2.9,0.5,4.9,3.1,4.9,6
	C41.2,124.6,38.9,127.2,35.8,127.6z"/>
<path class="st28" d="M131.1,149c0.4,0,0.8,0.2,1.1,0.5c0.2,0.4,0.5,0.7,0.8,1l-11,9.5l11,9.5l-0.8,1c-0.5,0.6-1.4,0.7-2,0.2
	l-10.9-8.5l-2,1.7c0.4,1.5,0,3.1-1.2,4.2c-0.7,0.6-1.6,0.9-2.5,0.9h-0.4c-1-0.1-2-0.6-2.6-1.4c-0.6-0.7-0.9-1.6-0.9-2.5
	c0-1.2,0.5-2.4,1.5-3.1c0.7-0.6,1.6-0.9,2.5-0.9h0.4c0.1,0,0.3,0.1,0.4,0.1l1.8-1.2l-1.8-1.2c-0.1,0-0.3,0.1-0.4,0.1h-0.4
	c-0.9,0-1.8-0.3-2.5-0.9c-0.9-0.8-1.5-1.9-1.5-3.1c0-0.9,0.3-1.8,0.9-2.5c0.7-0.8,1.6-1.3,2.6-1.4h0.4c0.9,0,1.8,0.3,2.5,0.9
	c1.2,1,1.7,2.7,1.2,4.2l2,1.7l10.9-8.5C130.5,149.1,130.8,149,131.1,149 M113.6,156.7h0.2c0.5-0.1,0.9-0.3,1.2-0.7
	c0.3-0.3,0.4-0.7,0.4-1.1c0-0.6-0.3-1.1-0.7-1.4c-0.3-0.3-0.7-0.4-1.1-0.4h-0.2c-0.5,0.1-0.9,0.3-1.2,0.7c-0.6,0.8-0.5,1.9,0.3,2.5
	c0,0,0,0,0,0C112.8,156.6,113.2,156.7,113.6,156.7 M119.3,161c0.6,0,1.1-0.5,1.1-1.1c0-0.6-0.5-1.1-1.1-1.1s-1.1,0.5-1.1,1.1l0,0
	c-0.1,0.5,0.3,1,0.9,1.1C119.2,161,119.2,161,119.3,161 M113.6,166.8c0.4,0,0.8-0.1,1.1-0.4c0.4-0.3,0.7-0.8,0.7-1.4
	c0-0.4-0.1-0.8-0.4-1.1c-0.3-0.4-0.7-0.6-1.2-0.7h-0.2c-0.4,0-0.8,0.1-1.1,0.4c-0.8,0.6-0.9,1.8-0.3,2.5c0.3,0.4,0.7,0.6,1.2,0.7
	H113.6 M131.1,147.2L131.1,147.2c-0.7,0-1.3,0.2-1.9,0.6l0,0l-9.8,7.7l-0.2-0.1c0.1-1.9-0.6-3.7-2-4.9c-1-0.8-2.3-1.3-3.6-1.3H113
	c-1.5,0.2-2.9,0.9-3.8,2.1c-0.8,1-1.3,2.3-1.3,3.6c0,1.7,0.8,3.3,2.1,4.4l0.9,0.6l-0.9,0.6c-1.3,1.1-2.1,2.7-2.1,4.4
	c0,1.3,0.4,2.6,1.3,3.6c0.9,1.2,2.3,1.9,3.8,2.1h0.6c1.3,0,2.6-0.5,3.6-1.3c1.4-1.2,2.2-3,2-4.9l0.2-0.1l9.8,7.7l0,0
	c0.6,0.4,1.2,0.6,1.9,0.6c0.9,0,1.8-0.4,2.4-1.1c0.2-0.4,0.5-0.7,0.8-1l1.1-1.3l-1.3-1.1l-9.5-8.2l9.5-8.2l1.3-1.1l-1.1-1.3l-0.8-1
	C132.9,147.6,132,147.2,131.1,147.2L131.1,147.2L131.1,147.2z M113.6,155L113.6,155z M113.6,165L113.6,165z"/>
<path class="st30" d="M131.3,163.7c0,0,12.7-5.7,12.2-11.4"/>
<path class="st30" d="M120.2,178.1c0,0-0.3-7,5.9-10.6"/>
<path class="st28" d="M191,15.2c-0.2-0.2-0.4-0.3-0.6-0.3c-0.2,0-0.5,0.1-0.6,0.3l-0.1,0.1c-0.3,0.4-0.3,0.9,0,1.3
	c5.2,5.6,5.2,14.2,0,19.8c-0.3,0.4-0.3,0.9,0,1.3l0.1,0.1c0.3,0.3,0.9,0.3,1.2,0C197,31.5,197,21.5,191,15.2z"/>
<path class="st28" d="M185.8,20.4c-0.2,0-0.5,0.1-0.6,0.3l-0.1,0.1c-0.3,0.4-0.3,0.9,0,1.3c1.2,1.2,1.8,2.9,1.8,4.6
	c0,1.7-0.6,3.4-1.8,4.6c-0.3,0.4-0.3,0.9,0,1.3l0.1,0.1c0.3,0.3,0.9,0.3,1.2,0c3.1-3.3,3.1-8.5,0-11.8
	C186.3,20.6,186.1,20.4,185.8,20.4z"/>
<path class="st28" d="M169.4,15.3l-0.1-0.1c-0.2-0.2-0.4-0.3-0.6-0.3c-0.2,0-0.5,0.1-0.6,0.3c-2.9,3-4.5,7.1-4.5,11.3
	c0,4.2,1.6,8.3,4.5,11.3c0.3,0.3,0.9,0.3,1.2,0l0.1-0.1c0.3-0.4,0.3-0.9,0-1.3c-5.2-5.6-5.2-14.2,0-19.8
	C169.7,16.2,169.7,15.7,169.4,15.3z"/>
<path class="st28" d="M173.9,20.7L173.9,20.7c-0.2-0.2-0.4-0.3-0.7-0.3c-0.2,0-0.5,0.1-0.6,0.3c-3.1,3.3-3.1,8.5,0,11.8
	c0.3,0.3,0.9,0.3,1.2,0l0.1-0.1c0.3-0.4,0.3-0.9,0-1.3c-1.2-1.2-1.8-2.9-1.8-4.6c0-1.7,0.6-3.3,1.8-4.5c0.4-0.3,0.4-0.8,0.1-1.2
	C174,20.8,173.9,20.7,173.9,20.7z"/>
<circle class="st28" cx="179.5" cy="26.5" r="2.3"/>
</svg>
